<?xml version="1.0" encoding="UTF-8"?>
<svg xmlns="http://www.w3.org/2000/svg" width="1600" height="900" viewBox="0 0 1600 900">
<rect width="100%" height="100%" fill="white"/>
<text x="800" y="50" text-anchor="middle" font-family="Arial" font-size="34" font-weight="bold">Future Network</text>

<ellipse cx="800" cy="120" rx="140" ry="45" fill="#eef6ff" stroke="#2563eb" stroke-width="3"/>
<text x="800" y="128" text-anchor="middle" font-family="Arial" font-size="22">Future Internet</text>

<g font-family="Arial">
<rect x="140" y="300" width="180" height="100" fill="#ecfdf5" stroke="#16a34a"/>
<text x="230" y="355" text-anchor="middle" font-size="20">AI</text>

<rect x="430" y="300" width="180" height="100" fill="#ecfdf5" stroke="#16a34a"/>
<text x="520" y="355" text-anchor="middle" font-size="20">IoT</text>

<rect x="720" y="300" width="180" height="100" fill="#ecfdf5" stroke="#16a34a"/>
<text x="810" y="355" text-anchor="middle" font-size="20">Cloud</text>

<rect x="1010" y="300" width="180" height="100" fill="#ecfdf5" stroke="#16a34a"/>
<text x="1100" y="355" text-anchor="middle" font-size="20">Edge</text>

<rect x="1300" y="300" width="180" height="100" fill="#ecfdf5" stroke="#16a34a"/>
<text x="1390" y="355" text-anchor="middle" font-size="20">6G</text>
</g>

<line x1="800" y1="165" x2="230" y2="300" stroke="#64748b" stroke-width="3"/>
<line x1="800" y1="165" x2="520" y2="300" stroke="#64748b" stroke-width="3"/>
<line x1="800" y1="165" x2="810" y2="300" stroke="#64748b" stroke-width="3"/>
<line x1="800" y1="165" x2="1100" y2="300" stroke="#64748b" stroke-width="3"/>
<line x1="800" y1="165" x2="1390" y2="300" stroke="#64748b" stroke-width="3"/>

<rect x="120" y="560" width="1360" height="220" fill="#f8fafc" stroke="#94a3b8"/>
<text x="150" y="605" font-family="Arial" font-size="24" font-weight="bold">Future Trends</text>
<text x="150" y="645" font-family="Arial" font-size="18">• Faster wireless communication (6G)</text>
<text x="150" y="680" font-family="Arial" font-size="18">• AI-driven network management</text>
<text x="150" y="715" font-family="Arial" font-size="18">• Billions of connected IoT devices</text>
<text x="150" y="750" font-family="Arial" font-size="18">• Cloud and edge computing working together</text>
</svg>